<?xml version="1.0" standalone="no"?>
<!DOCTYPE svg PUBLIC "-//W3C//DTD SVG 20010904//EN"
 "http://www.w3.org/TR/2001/REC-SVG-20010904/DTD/svg10.dtd">
<svg version="1.0" xmlns="http://www.w3.org/2000/svg"
 width="300.000000pt" height="300.000000pt" viewBox="0 0 300.000000 300.000000"
 preserveAspectRatio="xMidYMid meet">
<metadata>
Created by potrace 1.14, written by Peter Selinger 2001-2017
</metadata>
<g transform="translate(0.000000,300.000000) scale(0.100000,-0.100000)"
fill="#000000" stroke="none">
<path d="M1702 2769 c-66 -8 -190 -45 -207 -60 -5 -5 -29 -9 -55 -10 -78 -2
-144 -21 -155 -46 -5 -13 -16 -25 -23 -28 -29 -11 -138 38 -204 91 -37 30 -72
54 -77 54 -12 0 -15 -20 -3 -20 4 0 25 -16 47 -36 22 -20 54 -44 70 -55 l30
-19 -40 0 c-51 0 -80 20 -95 65 -12 37 -30 47 -30 17 0 -20 41 -84 82 -128
l28 -30 -54 -38 c-109 -75 -229 -224 -302 -376 -31 -65 -66 -100 -101 -100
-10 0 -25 -5 -33 -10 -12 -8 -10 -14 14 -39 l29 -31 -28 -90 c-47 -155 -78
-204 -122 -196 -14 2 -23 -2 -23 -10 0 -33 58 -60 157 -71 35 -4 50 -9 46 -17
-4 -6 -6 -37 -5 -70 3 -52 0 -62 -25 -88 -15 -17 -38 -34 -50 -39 -13 -5 -23
-13 -23 -19 0 -17 52 -25 163 -24 l109 1 -6 -31 c-4 -17 -18 -43 -33 -58 -37
-39 -22 -52 46 -37 29 6 54 9 55 7 46 -63 49 -71 38 -102 -7 -18 -12 -53 -12
-79 0 -34 -4 -47 -14 -47 -8 0 -17 9 -21 19 -3 11 -13 22 -21 25 -15 6 -15 9
0 32 11 16 16 40 14 67 -3 37 -6 42 -29 45 -17 2 -37 -6 -58 -24 -27 -22 -34
-25 -42 -13 -5 8 -9 17 -9 21 0 3 -14 15 -32 26 -24 15 -36 18 -45 10 -18 -15
-16 -76 5 -122 17 -39 17 -41 0 -58 -17 -17 -18 -28 -11 -96 4 -42 7 -92 6
-109 -11 -163 -8 -198 18 -248 51 -97 155 -144 260 -117 35 9 39 8 35 -6 -2
-10 -8 -37 -11 -61 -6 -34 -4 -42 6 -39 8 3 21 41 31 99 30 165 80 359 93 359
6 0 19 -6 29 -13 17 -12 17 -17 2 -90 -9 -42 -16 -88 -16 -102 0 -32 32 -64
71 -72 28 -5 30 -8 25 -47 -3 -22 -8 -80 -12 -128 -3 -49 -10 -90 -15 -94 -16
-9 -10 -60 9 -77 10 -10 28 -17 40 -17 26 0 53 36 44 60 -4 10 -6 81 -4 158
l3 139 42 -8 c23 -5 102 -11 175 -15 l134 -7 -3 -166 c-2 -91 0 -172 4 -178
14 -23 65 -15 82 11 14 20 14 29 4 48 -7 13 -14 77 -17 156 l-5 132 24 0 c22
0 26 8 50 108 l26 107 49 16 49 16 3 -219 c1 -134 6 -218 12 -218 6 0 10 84
10 224 0 194 2 227 16 241 9 9 23 14 30 11 8 -3 14 1 14 9 0 8 -7 15 -16 15
-25 0 -54 -19 -54 -36 0 -8 -4 -13 -9 -10 -5 3 -28 -1 -51 -9 -56 -20 -60 -19
-60 10 0 34 -19 72 -45 89 -18 12 -31 13 -59 5 -47 -13 -70 -48 -63 -94 l6
-35 -69 0 c-60 0 -71 3 -84 22 -9 12 -16 26 -16 30 0 5 24 34 53 66 93 104
114 128 131 154 9 14 29 29 44 33 34 8 168 72 204 97 14 10 46 21 70 24 l43 6
25 -63 c19 -49 31 -65 50 -69 21 -5 25 -12 24 -41 -1 -45 -64 -155 -87 -151
-8 1 -18 -2 -22 -8 -3 -5 -2 -10 3 -10 36 0 156 -311 206 -532 4 -16 11 -28
17 -28 7 0 9 10 4 28 -4 15 -9 38 -11 52 -9 51 -16 77 -45 170 -29 89 -48 135
-103 255 l-23 50 22 30 c75 100 87 205 24 205 -16 0 -45 57 -34 68 2 3 22 0
45 -6 43 -11 59 -2 35 18 -13 11 -51 63 -78 106 -5 9 3 10 27 4 96 -22 202 83
182 182 -7 36 3 35 39 -2 23 -24 27 -33 16 -39 -16 -10 -6 -31 15 -31 25 0 8
150 -19 169 -18 12 -18 15 -3 23 9 5 14 13 11 17 -2 5 22 11 55 14 68 6 130
38 130 68 0 12 7 19 20 19 11 0 20 7 20 15 0 10 -10 15 -28 15 -28 0 -80 30
-128 75 -25 23 -28 35 -35 118 -7 94 -30 192 -67 284 l-22 53 30 15 c35 18
100 83 100 100 0 7 -20 15 -48 18 -57 7 -165 60 -194 96 -12 16 -22 21 -25 14
-6 -18 -33 -4 -33 17 0 42 -168 150 -277 179 -24 7 -43 16 -43 20 0 16 94 64
127 66 46 1 44 19 -3 27 -49 9 -101 8 -182 -3z m284 -220 c44 -30 72 -59 57
-59 -16 0 -133 79 -133 89 0 14 27 3 76 -30z m-946 -46 c0 -6 -86 -148 -102
-168 -5 -5 -21 -28 -37 -50 -19 -28 -44 -47 -80 -62 -65 -27 -64 -22 17 90 73
101 202 223 202 190z m1016 -125 c30 -44 54 -91 54 -108 0 -6 -8 -10 -18 -10
-10 0 -22 -4 -27 -9 -6 -5 -21 -11 -35 -13 -14 -2 -24 -9 -22 -16 3 -16 -40
-16 -60 1 -42 32 -94 147 -67 147 39 -1 105 -23 134 -46 43 -32 50 -19 19 35
-13 24 -24 47 -24 52 0 20 18 7 46 -33z m-1008 -41 c5 -26 -16 -74 -36 -82 -8
-3 -22 1 -30 8 -12 12 -11 20 8 56 22 44 51 53 58 18z m322 -47 c40 -40 12
-150 -40 -150 -38 0 -72 89 -50 131 24 44 58 51 90 19z m105 -31 c9 -14 -3
-59 -15 -59 -13 0 -32 48 -24 61 7 12 31 11 39 -2z m804 -184 c17 -52 33 -127
36 -167 l5 -73 -21 45 c-20 43 -30 72 -49 150 -12 53 -18 140 -9 140 4 0 22
-43 38 -95z m-1121 -268 c64 -140 187 -278 302 -340 70 -38 126 -53 159 -42
27 8 28 29 1 22 -27 -7 -68 29 -114 97 -20 30 -36 57 -36 59 0 3 24 -8 53 -23
28 -16 71 -33 95 -40 41 -11 43 -12 37 -43 -8 -39 18 -123 48 -154 47 -52 107
-9 115 82 6 70 -18 136 -61 169 -37 29 -33 36 22 43 50 7 91 -9 126 -49 25
-28 27 -35 21 -84 -8 -69 -33 -132 -57 -145 -11 -5 -19 -16 -19 -24 0 -16 16
-20 24 -6 3 5 23 12 43 16 68 13 138 66 214 163 38 48 111 -59 93 -135 -21
-87 -128 -142 -190 -98 -20 13 -25 10 -85 -49 -71 -70 -148 -118 -257 -161
-39 -15 -70 -30 -68 -32 2 -2 -8 -16 -23 -32 -14 -15 -53 -58 -86 -96 -33 -38
-68 -76 -77 -84 -25 -22 -22 -58 7 -86 21 -22 33 -25 95 -25 l70 0 0 -100 c0
-99 0 -100 -22 -96 -13 3 -88 10 -168 16 -80 7 -147 14 -150 16 -9 9 2 179 12
189 8 7 9 6 4 -2 -9 -17 -4 -16 66 3 32 9 55 21 52 26 -6 9 -28 6 -76 -8 -14
-4 -15 -1 -6 23 14 38 -4 81 -37 89 -31 8 -72 -17 -85 -52 -5 -13 -12 -24 -16
-24 -3 0 -32 14 -63 30 -146 79 -221 202 -180 294 12 25 12 25 38 7 63 -45
254 -121 303 -121 23 0 58 -26 58 -44 0 -22 66 -106 83 -106 25 0 21 12 -14
46 -17 16 -40 47 -51 68 l-20 39 59 -5 c32 -3 69 -2 83 1 17 5 -6 10 -69 15
-100 7 -243 32 -270 46 -9 4 -42 21 -74 36 -126 60 -177 130 -177 241 0 37 -5
85 -10 105 -12 41 4 151 34 239 26 77 124 249 161 282 20 18 20 18 36 -35 9
-29 30 -84 47 -121z m549 34 c23 -37 62 -89 85 -116 38 -43 40 -48 18 -42 -13
3 -44 2 -68 -4 -25 -5 -47 -7 -50 -4 -3 3 10 19 29 35 36 31 25 41 -15 15 -23
-15 -23 -15 -34 27 -9 34 -32 152 -32 165 0 1 6 0 13 -3 6 -3 31 -36 54 -73z
m-1161 -162 c-7 -17 -16 -30 -19 -30 -4 1 -15 1 -24 2 -14 0 -13 2 4 9 12 5
27 18 33 29 16 32 21 25 6 -10z m1213 -23 c-2 -2 -17 -6 -34 -10 -22 -5 -26
-4 -15 4 14 9 59 15 49 6z m4 -100 c4 -10 0 -12 -14 -9 -22 6 -26 23 -5 23 8
0 16 -6 19 -14z m7 -77 c0 -22 -5 -29 -19 -29 -22 0 -33 39 -19 65 14 24 38 0
38 -36z m-63 9 c-3 -8 -6 -5 -6 6 -1 11 2 17 5 13 3 -3 4 -12 1 -19z m25 -69
c6 -4 7 -12 3 -19 -11 -18 -35 16 -34 49 l0 26 10 -25 c6 -13 15 -27 21 -31z
m53 -48 c-15 -31 -47 -42 -60 -21 -3 6 3 10 14 10 11 0 28 11 37 25 23 35 29
24 9 -14z m-1080 -208 c14 -15 25 -30 25 -33 0 -3 5 -12 10 -20 7 -12 15 -8
44 24 37 39 58 43 65 11 4 -23 -27 -85 -51 -103 -22 -16 -23 -39 -2 -59 8 -9
14 -27 12 -41 -2 -20 -11 -29 -36 -36 -40 -11 -74 2 -98 38 -16 26 -13 82 5
72 19 -12 19 39 0 77 -20 43 -26 97 -9 97 5 0 21 -12 35 -27z m155 -165 c11
-21 12 -32 4 -45 -14 -23 -34 -28 -34 -8 0 9 -7 29 -15 44 -25 49 17 57 45 9z
m90 -64 c0 -6 24 -32 54 -58 l54 -47 -28 -107 c-16 -59 -34 -134 -40 -168 -11
-56 -14 -61 -36 -56 -14 2 -24 0 -24 -7 0 -16 -104 -14 -147 4 -85 36 -137
159 -113 267 l12 53 62 1 c64 1 112 19 154 58 24 21 24 21 39 1 21 -28 53
-103 53 -126 0 -10 5 -19 11 -19 17 0 2 77 -23 120 -12 19 -30 45 -41 57 -10
12 -16 26 -13 31 3 6 1 12 -6 14 -6 2 -8 10 -4 17 6 9 11 8 22 -6 7 -10 14
-23 14 -29z m-64 -25 c-2 -41 -49 -64 -129 -64 -72 0 -72 0 -75 28 -3 26 -2
27 17 18 33 -18 87 -13 138 14 26 13 49 25 49 25 1 0 1 -10 0 -21z m324 -207
c0 -90 -12 -152 -28 -152 -21 0 -62 39 -62 59 0 9 7 50 17 93 l16 77 29 -15
c25 -13 28 -20 28 -62z m490 69 c0 -5 -4 -11 -9 -13 -14 -5 -31 -207 -31 -376
0 -118 -3 -153 -12 -150 -16 6 -24 482 -8 522 7 19 17 26 35 26 14 0 25 -4 25
-9z m-430 -9 c0 -4 -5 -13 -10 -18 -9 -9 -29 -294 -30 -431 0 -24 -5 -43 -11
-43 -6 0 -8 21 -5 58 3 31 8 138 11 237 4 99 8 186 10 193 5 13 35 17 35 4z
m485 -59 c-4 -10 -16 -55 -27 -100 -11 -46 -24 -83 -29 -83 -5 0 -9 41 -9 90
0 82 2 90 19 90 11 0 23 5 26 10 11 17 28 11 20 -7z m-75 -509 c0 -10 -31 -36
-37 -31 -10 10 6 37 22 37 8 0 15 -3 15 -6z"/>
<path d="M1020 1699 c0 -10 116 -69 138 -69 6 0 12 5 12 10 0 6 -6 10 -12 10
-7 0 -26 7 -43 16 -57 30 -95 43 -95 33z"/>
<path d="M934 1610 c-23 -9 -38 -36 -28 -51 3 -5 12 -2 20 6 19 19 98 19 139
0 l30 -13 -27 -1 c-30 -1 -58 -33 -58 -66 0 -48 42 -145 76 -175 19 -16 39
-30 44 -30 5 0 19 15 32 33 29 40 31 118 4 160 -16 24 -16 27 -2 21 25 -10 19
7 -16 46 -18 19 -26 29 -18 23 17 -16 30 -17 30 -3 0 6 -24 22 -52 35 -55 26
-132 32 -174 15z m181 -100 c10 -11 16 -20 13 -20 -3 0 -13 9 -23 20 -10 11
-16 20 -13 20 3 0 13 -9 23 -20z m8 -51 c11 -15 16 -17 20 -7 3 7 6 0 6 -16 1
-16 -2 -26 -6 -23 -3 4 -12 2 -20 -4 -10 -9 -17 -8 -30 2 -9 8 -19 13 -22 11
-8 -5 -19 32 -12 43 3 6 9 -3 12 -20 l7 -30 1 33 c1 37 22 43 44 11z m24 -106
c-3 -10 -5 -2 -5 17 0 19 2 27 5 18 2 -10 2 -26 0 -35z m-32 -11 c-3 -3 -11 0
-18 7 -9 10 -8 11 6 5 10 -3 15 -9 12 -12z"/>
<path d="M2091 1417 c-29 -15 -48 -43 -37 -54 5 -4 11 -2 13 5 3 6 11 12 18
12 16 0 26 -25 19 -45 -4 -8 -2 -15 4 -15 18 0 23 33 7 56 -21 32 -20 34 20
34 26 0 33 -3 29 -15 -4 -8 -1 -15 5 -15 18 0 25 31 10 41 -20 12 -60 11 -88
-4z"/>
<path d="M1780 1255 c0 -8 5 -15 10 -15 6 0 10 7 10 15 0 8 -4 15 -10 15 -5 0
-10 -7 -10 -15z"/>
<path d="M1734 1244 c3 -9 6 -18 6 -20 0 -2 7 -4 15 -4 13 0 13 3 3 20 -15 24
-33 27 -24 4z"/>
<path d="M1044 1226 c-3 -15 -4 -29 -1 -32 3 -3 11 4 17 16 8 15 9 25 1 33 -7
7 -12 2 -17 -17z"/>
<path d="M1090 1214 c0 -14 4 -23 10 -19 6 3 10 15 10 26 0 10 -4 19 -10 19
-5 0 -10 -12 -10 -26z"/>
<path d="M1421 1201 c-71 -37 -81 -63 -42 -102 23 -22 38 -29 68 -28 l38 1
-35 10 c-45 13 -72 37 -68 62 2 14 23 29 71 50 58 26 70 28 78 16 14 -21 4
-88 -17 -111 -24 -26 -11 -36 15 -10 25 25 35 78 22 114 -14 37 -59 36 -130
-2z"/>
<path d="M704 1029 c-3 -5 -4 -9 -2 -9 2 0 18 -4 36 -9 24 -7 32 -7 30 1 -5
15 -56 29 -64 17z"/>
</g>
</svg>
